<svg width="349" height="328" viewBox="0 0 349 328" fill="none" xmlns="http://www.w3.org/2000/svg">
<g opacity="0.04">
<path d="M174.435 0C270.845 0 349 73.4099 349 163.966C349 254.521 270.845 327.931 174.435 327.931C96.9166 327.931 31.2094 280.472 8.43491 214.8C6.13502 208.168 16.9703 204.674 21.3485 210.161C45.6962 240.673 84.5053 260.416 128.226 260.416C201.951 260.416 261.717 204.279 261.717 135.031C261.717 76.1407 206.108 34.301 145.263 17.1696C137.983 15.1199 137.468 3.51331 144.887 2.04691C155.243 0 161.871 0 174.435 0Z" fill="white"/>
<ellipse cx="92.287" cy="60.7702" rx="35.9399" ry="33.7576" fill="white"/>
<ellipse cx="153.898" cy="147.576" rx="35.9399" ry="33.7576" fill="white"/>
<ellipse cx="40.9445" cy="147.576" rx="35.9399" ry="33.7576" fill="white"/>
</g>
</svg>
